<?xml version="1.0" encoding="UTF-8" standalone="no"?>
<!DOCTYPE svg PUBLIC "-//W3C//DTD SVG 1.1//EN" "http://www.w3.org/Graphics/SVG/1.1/DTD/svg11.dtd">
<svg width="100%" height="100%" viewBox="0 0 1800 639" version="1.1" xmlns="http://www.w3.org/2000/svg" xmlns:xlink="http://www.w3.org/1999/xlink" xml:space="preserve" xmlns:serif="http://www.serif.com/" style="fill-rule:evenodd;clip-rule:evenodd;stroke-linejoin:round;stroke-miterlimit:2;">
    <g>
        <path d="M1592.14,638.368L323.946,638.368C209.149,638.368 116.097,545.352 116.097,430.624L116.097,182.95L35.05,182.95C15.693,182.95 -0,167.257 -0,147.899L-0,35.051C0,15.693 15.693,0 35.05,0L1652.03,0C1652.05,0 1658.83,0.006 1658.83,0.006C1659.13,-0.002 1659.44,0 1659.74,0C1736.97,0 1799.82,62.724 1800,139.875L1800,140.204L1800,430.624C1800,545.351 1706.94,638.368 1592.14,638.368Z"/>
        <path d="M1652.56,147.78L1221.2,147.78L1221.2,466.299L1099.08,466.299L1099.08,147.78L695.755,147.78L695.755,34.852L1652.56,34.852L1652.56,34.986C1652.76,34.9 1652.98,34.852 1653.21,34.852C1714.72,34.852 1764.86,85.387 1765.55,147.78L1765.55,147.78L1765.55,430.701C1765.55,526.144 1688.13,603.516 1592.63,603.516L838.641,603.516L838.641,490.597L1562.94,490.597C1612.43,490.597 1652.56,450.496 1652.56,401.022L1652.56,147.78L1682.73,147.78C1682.07,131.794 1669.09,118.982 1653.21,118.982C1652.98,118.982 1652.76,118.935 1652.56,118.848L1652.56,147.78ZM1652.56,53.059L1652.56,67.886C1652.76,67.799 1652.98,67.752 1653.21,67.752C1696.88,67.752 1732.51,103.529 1733.19,147.78L1747.46,147.78C1746.78,95.511 1704.76,53.193 1653.21,53.193C1652.98,53.193 1652.76,53.145 1652.56,53.059ZM1652.56,85.949L1652.56,100.785C1652.76,100.699 1652.98,100.651 1653.21,100.651C1679.05,100.651 1700.16,121.669 1700.83,147.78L1715.1,147.78C1714.43,113.645 1686.93,86.083 1653.21,86.083C1652.98,86.083 1652.76,86.035 1652.56,85.949ZM676.082,147.78L272.75,147.78L272.75,401.03C272.75,450.496 312.874,490.597 362.371,490.597L676.082,490.597L676.082,603.516L323.544,603.516C228.044,603.516 150.625,526.144 150.625,430.701L150.625,147.78L34.447,147.78L34.447,34.852L676.082,34.852L676.082,147.78ZM300.772,172.078L676.082,172.078L676.082,466.299L553.957,466.299L553.957,285.005L422.897,285.005L422.897,337.753C422.897,346.382 429.89,353.371 438.525,353.371L533.187,353.371L533.187,466.299L374.271,466.299C333.678,466.299 300.772,433.413 300.772,392.836L300.772,172.078ZM695.755,172.078L1071.06,172.078L1071.06,392.836C1071.06,433.413 1038.15,466.299 997.556,466.299L838.641,466.299L838.641,353.371L933.303,353.371C941.938,353.371 948.939,346.382 948.939,337.753L948.939,285.005L817.879,285.005L817.879,603.516L695.755,603.516L695.755,172.078ZM1624.53,172.078L1624.53,392.836C1624.53,433.413 1591.63,466.299 1551.04,466.299L1322.73,466.299C1282.14,466.299 1249.23,433.413 1249.23,392.836L1249.23,172.078L1624.53,172.078ZM1502.41,285.005L1371.35,285.005L1371.35,337.753C1371.35,346.382 1378.35,353.371 1386.99,353.371L1486.78,353.371C1495.42,353.371 1502.41,346.382 1502.41,337.753L1502.41,285.005Z" style="fill:white;"/>
    </g>
</svg>
